<svg width="175" height="175" viewBox="0 -28.5 175 175" fill="none" xmlns="http://www.w3.org/2000/svg">
<path d="M172.844 53.7943L146.902 27.9789L120.96 2.16349C119.696 0.906005 118.079 0.203294 116.425 0.0368627C116.184 0.0183703 115.961 -0.00012207 115.719 -0.00012207C113.823 -0.00012207 111.928 0.721081 110.478 2.16349L97.9718 14.6089L118.748 35.2834L116.091 37.9278C111.779 42.218 104.773 42.218 100.443 37.9278L64.2987 1.94158C63.3881 1.10942 62.3288 0.55465 61.2138 0.258772C60.9908 0.203294 60.7678 0.147817 60.5448 0.110832C60.5448 0.110832 60.5263 0.110832 60.5077 0.110832C60.2847 0.0738475 60.0803 0.0553551 59.8573 0.0368627C59.8387 0.0368627 59.8015 0.0368627 59.7829 0.0368627C59.5785 0.0368627 59.3741 0.0183703 59.1697 0.0368627C59.1325 0.0368627 59.0953 0.0368627 59.0582 0.0368627C58.8723 0.0368627 58.6865 0.0368627 58.4821 0.0738475C58.4263 0.0738475 58.3706 0.0738475 58.3148 0.0923399C58.1476 0.110832 57.9617 0.147817 57.7945 0.16631C57.7202 0.16631 57.6644 0.203294 57.5901 0.221787C57.4414 0.258772 57.2742 0.295756 57.1255 0.332741C57.0326 0.351234 56.9582 0.388218 56.8653 0.425203C56.7352 0.48068 56.5866 0.517665 56.4565 0.573142C56.3636 0.610127 56.2521 0.665604 56.1591 0.702589C56.0476 0.758066 55.9176 0.813543 55.8061 0.869021C55.6946 0.924498 55.5831 0.998467 55.4716 1.07244C55.3786 1.12791 55.2857 1.18339 55.1928 1.23887C55.0627 1.33133 54.9326 1.42379 54.8026 1.51625C54.7282 1.57173 54.6539 1.60872 54.5981 1.66419C54.4123 1.81213 54.2265 1.97856 54.0406 2.16349L28.0982 27.9789L2.17434 53.7943C1.41242 54.5525 0.836329 55.4401 0.483245 56.4017C-0.52026 59.0276 0.0558259 62.0974 2.17434 64.224L54.0592 115.855C54.5052 116.299 54.9884 116.668 55.5087 116.983C55.7317 117.112 55.9733 117.242 56.1963 117.353C56.3821 117.427 56.5494 117.501 56.7352 117.575C58.4077 118.185 60.2289 118.166 61.9014 117.556C62.0687 117.501 62.2173 117.427 62.3846 117.353C62.8678 117.131 63.3138 116.872 63.7598 116.539C63.7598 116.539 63.7784 116.52 63.7969 116.502C63.8155 116.502 63.8341 116.465 63.8527 116.465C64.0943 116.28 64.3173 116.077 64.5403 115.855L77.0283 103.428L56.2521 82.7534L58.9095 80.109C63.2208 75.8187 70.2268 75.8187 74.5567 80.109L110.701 116.077C111.612 116.909 112.671 117.464 113.786 117.759C114.009 117.815 114.232 117.87 114.455 117.907C114.455 117.907 114.474 117.907 114.492 117.907C114.641 117.926 114.79 117.944 114.938 117.963C114.938 117.963 114.976 117.963 114.994 117.963C114.994 117.963 115.013 117.963 115.031 117.963C115.087 117.963 115.124 117.963 115.18 117.963C115.199 117.963 115.217 117.963 115.236 117.963C115.366 117.963 115.496 117.963 115.626 117.963C115.719 117.963 115.793 117.963 115.886 117.963C115.923 117.963 115.942 117.963 115.979 117.963C116.091 117.963 116.221 117.963 116.332 117.963C116.425 117.963 116.499 117.963 116.592 117.944C116.63 117.944 116.667 117.944 116.704 117.944C116.815 117.944 116.927 117.907 117.038 117.889C117.131 117.889 117.206 117.852 117.299 117.833C117.336 117.833 117.391 117.815 117.429 117.796C117.522 117.778 117.633 117.741 117.726 117.722C117.8 117.704 117.893 117.667 117.968 117.649C118.023 117.63 118.079 117.612 118.135 117.593C118.228 117.556 118.321 117.538 118.395 117.501C118.469 117.464 118.544 117.445 118.618 117.408C118.692 117.371 118.748 117.353 118.822 117.316C118.897 117.279 118.99 117.242 119.064 117.205C119.138 117.168 119.213 117.131 119.268 117.094C119.343 117.057 119.417 117.001 119.51 116.946C119.584 116.909 119.64 116.872 119.714 116.835C119.789 116.798 119.845 116.742 119.919 116.705C120.012 116.631 120.105 116.576 120.198 116.502C120.253 116.465 120.291 116.428 120.346 116.391C120.569 116.225 120.774 116.04 120.96 115.836L172.844 64.2055C173.03 64.0206 173.197 63.8356 173.346 63.6507C174.443 62.3008 175 60.6549 175 59.0091C175 57.1229 174.275 55.2367 172.826 53.7943H172.844Z" fill="#E1E1E1"/>
</svg>
